<svg width="535" height="523" viewBox="0 0 535 523" fill="none" xmlns="http://www.w3.org/2000/svg">
<path d="M388 275C388 266.664 391.432 259.386 393.222 251.556C394.715 245.025 396 239.74 396 233C396 226.251 395 219.636 395 213C395 209.636 394 206.402 394 203C394 199.624 391 197.427 391 194C391 191.108 385.964 172.266 388.833 173.056C399.434 175.971 410.939 184.922 419.667 191.556C421.964 193.301 423.379 196.163 424.611 198.722C427.057 203.803 431.445 206.926 434.778 211.333C436.823 214.038 437.506 209.612 437.778 208.111C439.364 199.36 439.505 190.592 442.111 182C443.75 176.598 446.272 171.546 448.111 166.222C448.394 165.403 449 162.911 449 163.778C449 168.704 449 173.63 449 178.556C449 187.852 449 197.148 449 206.444C449 214.824 448.952 223.531 450.556 231.778C451.66 237.456 453 241.961 453 247.778C453 254.802 450.804 261.82 448.222 268.222C446.792 271.77 447.694 275.576 446.389 279.056C444.693 283.578 444.264 286.972 443.778 291.778C443.177 297.707 443 303.492 443 309.444C443 314.557 442.891 319.163 440.556 323.833C439.343 326.258 439 327.895 439 330.5C439 338.694 439.947 347.578 438.222 355.556C437.786 357.572 438.407 375.374 436.5 374.611C433.048 373.23 430.586 360.414 430.222 357.222C429.516 351.033 428.276 345.322 427.056 339.222C425.396 330.923 422.041 322.62 419.222 314.667C415.358 303.763 408.518 291.838 401.667 282.667C394.94 273.661 393.778 262.229 390.5 251.667C388.92 246.575 387.194 234.917 380.5 241.611C374.976 247.136 375.56 255.674 373.556 262.889C370.663 273.303 363.623 281.921 360.667 292.444C357.34 304.289 362.536 312.19 371.056 320C374.916 323.538 382.503 331.334 388 331.944C393.233 332.526 397.226 338.011 389.667 333.778C379.005 327.807 369.443 320.721 359.222 314.111C355.434 311.661 349.076 310.318 346.944 306.056C345.788 303.742 332.612 304.045 330.889 304C316.439 303.62 301.938 301 287.5 301C277.582 301 267.228 300.385 257.222 300C251.223 299.769 245.006 297.227 239 297C229.215 296.631 219.345 297 209.556 297C201.835 297 190.123 295.202 182.778 298C177.665 299.948 172.051 300.711 167 302.778C161.141 305.175 155.588 304.139 150.5 308.444C143.167 314.65 135.926 321.401 129.444 328.5C126.643 331.568 124.239 334.66 121.778 338C119.915 340.528 116.2 343.067 115.222 346C113.973 349.747 113.526 353.572 112.222 357.222C110.39 362.352 107.455 366.162 106.222 371.556C105.796 373.422 106.525 377.15 105.278 372.833C101.536 359.881 98.5455 346.735 94.4445 333.889C90.1551 320.453 87 308.127 87 294.111C87 289.852 87 285.593 87 281.333C87 280.129 84.9208 257.549 85.4445 257.778C89.7017 259.64 87 285.773 87 289.333C87 308.847 86.7856 328.376 87 347.889C87.1455 361.13 88.9819 373.272 95 384.556C96.4078 387.195 98.4854 388.91 100.778 390.778C102.979 392.571 104.363 374.205 104.556 372.889C106.203 361.649 106.409 350.816 107.222 339.556C108.293 324.724 113.328 309.636 116.556 295.111C118.377 286.913 120.294 278.981 122.556 270.889C124.847 262.689 129.448 255.325 131.222 247C132.529 240.867 135 234.887 135 228.556C135 225.842 134.337 221.435 138.667 223.167C146.937 226.475 148.217 236.805 153.778 242.778C156.42 245.616 159 248.963 159 253C159 254.186 165.65 264.459 161.111 262.111C153.356 258.1 147.621 249.803 141.222 244C134.79 238.166 128.414 232.054 121.167 227.222C118.134 225.2 115.481 223.434 112.778 221.222C111.592 220.252 110.185 224.111 109.889 224.556C103.982 233.416 96.2168 244.249 86 248.222C82.8792 249.436 82.6259 235.089 82.2222 232.667C80.7987 224.125 85.0076 217.624 87.6667 209.889C88.7753 206.664 90.2399 201.705 92.4445 199.111C94.6527 196.513 97.6068 193.024 99 189.889C101.707 183.798 106.645 178.012 111.222 173.222C115.007 169.261 118.405 164.537 122.778 161.222C126.585 158.336 130.666 155.501 134.333 152.5C135.926 151.197 136.728 148.382 138.222 146.778C141.307 143.465 143.006 138.737 146.778 136.222C147.994 135.412 151.588 130.64 152.444 133.333C154.183 138.797 153.619 145.34 154.111 151C154.617 156.816 156 162.067 156 168C156 174.778 156 181.556 156 188.333C156 189.446 156.734 193.807 155 194C150.321 194.52 145.417 190.957 142.444 187.778C135.447 180.294 135.326 175.494 134.222 166C133.762 162.044 132.264 153.071 129.5 150C126.798 146.997 120.191 148 116.444 148C114.298 148 112.64 147.874 111.444 150C109.355 153.714 110.453 148.834 111.833 147.556C113.655 145.869 116.076 145.134 118.111 143.778C121.644 141.423 124.531 137.948 127.667 135.111C129.533 133.423 132.731 131.777 134 129.556C134.784 128.183 138.667 126.35 140 125.444C144.069 122.681 147.473 119.097 151.667 116.556C160.821 111.008 169.829 104.936 179.444 100.222C187.584 96.2321 197.212 96 206.056 96C219.778 96 233.5 96 247.222 96C255.467 96 229.26 95.6347 223 101C220.076 103.506 216.324 103.825 212.833 105.111C208.345 106.765 204.251 108.875 200 111C196.218 112.891 192.402 116.758 196.611 110.333C199.778 105.499 200.695 99.8022 204.111 95.1111C207.553 90.3841 211.388 86.1132 214.444 81.1111C216.784 77.2834 217.82 69.5858 221.222 67C223.436 65.3172 223 65.1365 223 68.2222C223 74.4334 221.254 76.4557 217.222 80.6667C208.386 89.8954 201.674 102.155 192.444 110.944C186.932 116.194 188.662 121.247 185.444 127.389C184.84 128.542 181.974 133.954 183.667 129.667C188.061 118.535 192.903 107.281 198.222 96.5556C204.908 83.0736 219.183 62.5205 236.444 63C247.525 63.3078 240.136 86.2076 245.944 92.5C248.029 94.7577 245.98 99 250.167 99C262.021 99 271.1 98.4308 281.778 92.4444C288.048 88.9292 293.131 84.5708 298.778 80.4444C306.416 74.8628 294.762 81.9366 293.556 85.5556C290.323 95.2532 298.653 101.052 306.5 104.889C318.795 110.9 332.976 110.278 346.333 110C353.157 109.858 362.491 103.965 366 98C367.163 96.0235 369.385 95.1198 370.389 93.1111C371.616 90.6574 367 97.8677 367 100.611C367 107.461 366.338 114.681 367.056 121.5C367.703 127.653 383.595 125 387.556 125C394.499 125 396.64 120.61 402.667 125.222C409.625 130.548 415.977 137.127 423.389 141.778C428.803 145.175 435.061 150.011 440.944 152.333C443.627 153.392 447.683 155.91 450.556 156C451.907 156.042 436.431 144.471 434.722 143.278C420.519 133.36 402.756 123.096 394.5 107.5C388.101 95.4123 375.409 90.7433 363 86.0556C351.821 81.8322 340.139 78.8641 328.444 76.4444C320.324 74.7643 311.998 72.17 303.667 72C292.22 71.7664 274.809 68.209 265.778 76.1111C250.441 89.5309 231.245 97.6903 215.778 110.778C213.664 112.566 209.858 114.051 207.222 114.778C205.28 115.314 199.064 116.683 199.944 116.222C240.931 94.7529 294.078 77.3803 337.333 103.333C352.865 112.652 375.657 116.146 383.444 135C389.257 149.072 396.303 163.151 404.333 176C407.413 180.928 409.022 186.825 411.667 192C414.451 197.447 418.318 202.111 420 208" stroke="white" stroke-width="80" stroke-linecap="round"/>
<path d="M356 160H355" stroke="white" stroke-width="80" stroke-linecap="round"/>
<g clip-path="url(#clip0_2_2)">
<path d="M279 436C282.875 436 289.604 437.396 292.556 434.444C296.751 430.249 302.758 428.609 307.556 425.556C309.448 424.351 316.932 422.079 319.222 422C323.14 421.865 327.086 422.206 331 422C332.864 421.902 341.437 421.548 338.222 418.333C329.341 409.452 313.48 406.224 301.556 404.056C297.844 403.381 293.773 404.155 290 403.778C282.997 403.078 276.421 402 269.333 402C257.407 402 245.481 402 233.556 402C225.538 402 201 396.868 201 411.111C201 414.357 199.878 420.568 201.222 423.556C203.891 429.485 210.343 430.538 215.667 432.222C221.328 434.014 226.569 434.817 232.444 435.5C234.652 435.757 236.831 436 239.056 436C242.414 436 232.357 435.39 229.056 434.778C218.631 432.843 208.325 427.353 197.944 426.056C194.712 425.652 195.339 427.292 193.944 429.5C193.353 430.437 190.783 432.94 192.667 434C195.87 435.802 200.866 435.641 204.333 436C212.61 436.858 220.775 438.102 229 439.333C235.385 440.289 241.774 439.444 248 441" stroke="#103054" stroke-width="80" stroke-linecap="round"/>
<path d="M348 422C348.13 424.075 349.612 424.612 351 426" stroke="#103054" stroke-width="80" stroke-linecap="round"/>
<path d="M246 196C250.893 196 257.138 196.567 261 200C265.422 203.93 272 202.279 272 210" stroke="#103054" stroke-width="80" stroke-linecap="round"/>
<path d="M282 223C282 213.958 284.545 202.995 275 198.222C269.904 195.674 261.042 199.275 257.944 202.889C256.184 204.942 256.543 204.44 255.889 207.056C255.024 210.516 251.167 212.5 250 216" stroke="#103054" stroke-width="80" stroke-linecap="round"/>
<path d="M343 415C343 412.441 343.889 409.592 343.889 407.333C343.889 402.857 329.562 399.357 325.778 398.222C318.44 396.021 309.042 398.744 301.444 397.944C287.727 396.5 274.791 394 260.889 394C252.421 394 246.118 394.97 238 397" stroke="#103054" stroke-width="80" stroke-linecap="round"/>
<path d="M268 440C284.496 440 305.96 442.52 321 435" stroke="#103054" stroke-width="80" stroke-linecap="round"/>
<path d="M188 409C184.593 409 182 407.899 182 412" stroke="#103054" stroke-width="80" stroke-linecap="round"/>
<path d="M319 416C325.011 422.345 328 429.468 328 438" stroke="#103054" stroke-width="80" stroke-linecap="round"/>
<g clip-path="url(#clip1_2_2)">
<path d="M417.5 404.6C398.4 357.9 352.5 325 299 325H235C181.5 325 135.6 357.9 116.5 404.6C80.9 367.2 59 316.7 59 261C59 146.1 152.1 53 267 53C381.9 53 475 146.1 475 261C475 316.7 453.1 367.2 417.5 404.6ZM377.4 437.3C345.4 457.4 307.6 469 267 469C226.4 469 188.6 457.4 156.5 437.3C163.8 400.6 196.2 373 235 373H299C337.8 373 370.2 400.6 377.5 437.3H377.4ZM267 517C334.895 517 400.01 490.029 448.019 442.019C496.029 394.01 523 328.895 523 261C523 193.105 496.029 127.99 448.019 79.9807C400.01 31.9714 334.895 5 267 5C199.105 5 133.99 31.9714 85.9807 79.9807C37.9714 127.99 11 193.105 11 261C11 328.895 37.9714 394.01 85.9807 442.019C133.99 490.029 199.105 517 267 517ZM267 245C256.391 245 246.217 240.786 238.716 233.284C231.214 225.783 227 215.609 227 205C227 194.391 231.214 184.217 238.716 176.716C246.217 169.214 256.391 165 267 165C277.609 165 287.783 169.214 295.284 176.716C302.786 184.217 307 194.391 307 205C307 215.609 302.786 225.783 295.284 233.284C287.783 240.786 277.609 245 267 245ZM179 205C179 228.339 188.271 250.722 204.775 267.225C221.278 283.729 243.661 293 267 293C290.339 293 312.722 283.729 329.225 267.225C345.729 250.722 355 228.339 355 205C355 181.661 345.729 159.278 329.225 142.775C312.722 126.271 290.339 117 267 117C243.661 117 221.278 126.271 204.775 142.775C188.271 159.278 179 181.661 179 205Z" fill="#FFD43B"/>
</g>
</g>
<defs>
<clipPath id="clip0_2_2">
<rect width="512" height="512" fill="white" transform="translate(11 5)"/>
</clipPath>
<clipPath id="clip1_2_2">
<rect width="512" height="512" fill="white" transform="translate(11 5)"/>
</clipPath>
</defs>
</svg>
