<svg width="87" height="90" viewBox="0 0 87 90" fill="none" xmlns="http://www.w3.org/2000/svg">
<path fill-rule="evenodd" clip-rule="evenodd" d="M73.3888 77.3527C77.6683 73.1998 81.0775 68.1845 83.4058 62.6169C85.734 57.0493 86.9318 51.0476 86.925 44.983C86.925 20.4218 67.6475 0.512939 43.8653 0.512939C20.0831 0.512939 0.805571 20.4218 0.805571 44.983C0.798776 51.0476 1.99652 57.0493 4.32476 62.6169C6.65301 68.1845 10.0623 73.1998 14.3418 77.3527C22.3219 85.1378 32.8877 89.4683 43.8653 89.4531C54.8429 89.4683 65.4086 85.1378 73.3888 77.3527ZM18.0074 71.4917C21.108 67.4855 25.0427 64.2521 29.5193 62.0317C33.9958 59.8114 38.8992 58.661 43.8653 58.6661C48.8313 58.661 53.7347 59.8114 58.2113 62.0317C62.6878 64.2521 66.6225 67.4855 69.7232 71.4917C66.3403 75.0206 62.3127 77.8207 57.8739 79.7295C53.4351 81.6383 48.6735 82.618 43.8653 82.6115C39.057 82.618 34.2954 81.6383 29.8566 79.7295C25.4178 77.8207 21.3902 75.0206 18.0074 71.4917ZM60.4267 31.2999C60.4267 35.8361 58.6818 40.1866 55.576 43.3942C52.4701 46.6018 48.2576 48.4038 43.8653 48.4038C39.4729 48.4038 35.2604 46.6018 32.1546 43.3942C29.0487 40.1866 27.3038 35.8361 27.3038 31.2999C27.3038 26.7637 29.0487 22.4132 32.1546 19.2056C35.2604 15.998 39.4729 14.196 43.8653 14.196C48.2576 14.196 52.4701 15.998 55.576 19.2056C58.6818 22.4132 60.4267 26.7637 60.4267 31.2999Z" fill="white"/>
</svg>
